# Blender 4.1.0
# www.blender.org
mtllib tank.mtl
o Cube
v -0.329506 0.186228 -0.314104
v -0.161601 0.306974 0.538789
v -0.161601 0.496462 0.538789
v -0.329506 0.617208 -0.314104
v -0.329506 0.186228 0.538789
v -0.329506 0.617208 0.538789
v -0.161601 0.306974 1.475705
v -0.161601 0.496462 1.475705
v 0.000000 -0.421343 -0.614081
v 0.000000 0.186228 0.838766
v 0.000000 -0.421343 0.838766
v 0.000000 0.186228 -0.614081
v 0.000000 0.186228 0.538789
v 0.000000 0.186228 -0.314104
v 0.000000 0.617208 0.538789
v 0.000000 0.617208 -0.314104
v 0.000000 0.306974 0.538789
v 0.000000 0.496462 0.538789
v 0.000000 0.306974 1.475705
v 0.000000 0.496462 1.475705
v -0.571457 -0.421343 -0.614081
v -0.571457 -0.421343 0.838766
v -0.571457 0.186228 0.838766
v -0.571457 0.186228 -0.614081
v -0.571457 -0.408754 -0.427516
v -0.571457 -0.331228 -0.611512
v -0.571457 -0.421322 -0.614076
v -0.571457 -0.331228 0.836197
v -0.571457 -0.408754 0.652201
v -0.571457 -0.421322 0.838762
v -0.571457 -0.136342 0.652201
v -0.571457 -0.213867 0.836197
v -0.571457 -0.058816 0.836554
v -0.571457 -0.213867 -0.611512
v -0.571457 -0.136342 -0.427516
v -0.571457 -0.058816 -0.611869
v -0.968009 -0.331228 -0.611512
v -0.968009 -0.408754 -0.427516
v -0.968009 -0.408754 0.652201
v -0.968009 -0.331228 0.836197
v -0.968009 -0.213867 0.836197
v -0.968009 -0.136342 0.652201
v -0.968009 -0.136342 -0.427516
v -0.968009 -0.213867 -0.611512
v 0.329506 0.186228 -0.314104
v 0.161601 0.306974 0.538789
v 0.161601 0.496462 0.538789
v 0.329506 0.617208 -0.314104
v 0.329506 0.186228 0.538789
v 0.329506 0.617208 0.538789
v 0.161601 0.306974 1.475705
v 0.161601 0.496462 1.475705
v 0.571457 -0.421343 -0.614081
v 0.571457 -0.421343 0.838766
v 0.571457 0.186228 0.838766
v 0.571457 0.186228 -0.614081
v 0.571457 -0.408754 -0.427516
v 0.571457 -0.331228 -0.611512
v 0.571457 -0.421322 -0.614076
v 0.571457 -0.331228 0.836197
v 0.571457 -0.408754 0.652201
v 0.571457 -0.421322 0.838762
v 0.571457 -0.136342 0.652201
v 0.571457 -0.213867 0.836197
v 0.571457 -0.058816 0.836554
v 0.571457 -0.213867 -0.611512
v 0.571457 -0.136342 -0.427516
v 0.571457 -0.058816 -0.611869
v 0.968009 -0.331228 -0.611512
v 0.968009 -0.408754 -0.427516
v 0.968009 -0.408754 0.652201
v 0.968009 -0.331228 0.836197
v 0.968009 -0.213867 0.836197
v 0.968009 -0.136342 0.652201
v 0.968009 -0.136342 -0.427516
v 0.968009 -0.213867 -0.611512
vn -1.0000 -0.0000 -0.0000
vn -0.0000 -0.0000 1.0000
vn -0.0000 1.0000 -0.0000
vn -0.0000 -0.0000 -1.0000
vn -0.0000 -1.0000 -0.0000
vn -0.0000 -0.9215 0.3883
vn -0.0000 -0.9215 -0.3883
vn -0.0000 0.9215 -0.3883
vn -0.0000 0.9215 0.3883
vn 1.0000 -0.0000 -0.0000
vt 0.942594 0.185393
vt 0.788009 0.185393
vt 0.788009 0.000000
vt 0.942594 0.000000
vt 0.261357 0.451235
vt -0.000000 0.451235
vt -0.000000 0.300823
vt 0.261357 0.300823
vt 0.784063 0.300824
vt 0.745308 0.301289
vt 0.694822 0.301289
vt 0.628125 0.301224
vt 0.522715 0.300823
vt 0.784072 0.300823
vt 0.054370 0.150412
vt 0.054370 0.237140
vt 0.000000 0.300823
vt 0.000000 0.150412
vt 0.208955 0.237140
vt 0.263326 0.300823
vt 0.677300 0.913272
vt 0.677300 1.000000
vt 0.522714 1.000000
vt 0.522714 0.913272
vt 0.903990 0.733963
vt 0.861456 0.733963
vt 0.861456 0.564149
vt 0.903990 0.564149
vt 0.399855 0.787040
vt 0.313126 0.787040
vt 0.313126 0.601646
vt 0.399855 0.601646
vt 0.870800 0.434276
vt 0.913335 0.434276
vt 0.957529 0.486217
vt 0.870800 0.486217
vt 0.913335 0.352764
vt 0.957529 0.300823
vt 0.758811 0.826543
vt 0.840323 0.826543
vt 0.840323 0.996357
vt 0.758811 0.996357
vt 0.946525 0.903777
vt 0.903990 0.903777
vt 0.946525 0.733963
vt 0.081512 0.864041
vt 0.081512 0.906575
vt -0.000000 0.906575
vt -0.000000 0.864041
vt 0.870800 0.352764
vt 0.870800 0.300823
vt 0.208955 0.150412
vt 0.263326 0.150412
vt 0.522714 0.601646
vt 0.261357 0.601646
vt 0.522714 0.451235
vt 0.526651 -0.000000
vt 0.526651 0.150412
vt 0.263326 0.150412
vt 0.263326 0.000000
vt 0.788008 0.185393
vt 0.838494 0.185393
vt 0.838494 0.289769
vt 0.788009 0.289769
vt 0.861456 0.597498
vt 0.861456 0.793194
vt 0.757080 0.793194
vt 0.757080 0.597498
vt 0.518197 0.891415
vt 0.467711 0.891415
vt 0.467711 0.787040
vt 0.518197 0.787040
vt 0.639897 0.793194
vt 0.606549 0.826543
vt 0.556063 0.826543
vt 0.522714 0.793194
vt 0.522714 0.597498
vt 0.556063 0.564149
vt 0.606549 0.564149
vt 0.639897 0.597498
vt 0.661474 0.334638
vt 0.661474 0.530334
vt 0.628125 0.563748
vt 0.522715 0.564149
vt 0.694822 0.563683
vt 0.745308 0.563683
vt 0.784063 0.564148
vt 0.784072 0.564149
vt -0.000000 0.830692
vt -0.000000 0.634995
vt 0.104375 0.634995
vt 0.104375 0.830692
vt 0.778656 0.334638
vt 0.778656 0.530334
vt -0.000000 0.601646
vt 0.104375 0.601646
vt 0.104375 0.864041
vt -0.000000 0.864041
vt 0.861456 0.826543
vt 0.757080 0.826543
vt 0.757080 0.564149
vt 0.861456 0.564149
vt 0.313126 0.972433
vt 0.313126 0.787040
vt 0.467711 0.787040
vt 0.467711 0.972433
vt 0.000000 0.601646
vt 0.787999 0.263325
vt 0.788009 0.263326
vt 0.526651 0.263326
vt 0.632061 0.262925
vt 0.698759 0.262860
vt 0.749244 0.262860
vt 0.000000 0.000000
vt 0.054370 0.063683
vt 0.263326 -0.000000
vt 0.208955 0.063683
vt 0.522714 0.826543
vt 0.677300 0.826543
vt 0.946525 0.564149
vt 0.486583 0.601646
vt 0.486583 0.787040
vt 0.784072 0.486217
vt 0.828266 0.434276
vt 0.784072 0.300823
vt 0.828266 0.352764
vt 0.677300 0.996357
vt 0.677300 0.826543
vt 0.758811 0.826543
vt 0.758811 0.996357
vt 0.861456 0.903777
vt 0.081512 0.949110
vt -0.000000 0.949110
vt 0.522714 0.300823
vt 0.526651 0.300823
vt 0.263326 0.300823
vt 0.888979 0.289769
vt 0.888979 0.185393
vt 0.939464 0.185393
vt 0.939464 0.289769
vt 0.208751 0.634995
vt 0.208751 0.830692
vt 0.888979 0.185393
vt 0.838494 0.185393
vt 0.757080 0.597498
vt 0.757080 0.793194
vt 0.723731 0.826543
vt 0.673246 0.826543
vt 0.639897 0.597498
vt 0.673246 0.564149
vt 0.723731 0.564149
vt 0.526651 0.000000
vt 0.632061 0.000401
vt 0.665410 0.033814
vt 0.665410 0.229511
vt 0.788009 -0.000000
vt 0.787999 0.000001
vt 0.749244 0.000466
vt 0.698759 0.000466
vt 0.313126 0.830692
vt 0.208751 0.830692
vt 0.208751 0.634995
vt 0.313126 0.634995
vt 0.782593 0.229511
vt 0.782593 0.033814
vt 0.313126 0.601646
vt 0.208751 0.601646
vt 0.208751 0.864041
vt 0.313126 0.864041
vt 0.208751 0.864041
vt 0.208751 0.601646
s 0
usemtl Material
f 1/1/1 5/2/1 6/3/1 4/4/1
f 11/5/2 10/6/2 23/7/2 22/8/2
f 27/9/1 26/10/1 34/11/1 36/12/1 24/13/1 21/14/1
f 13/15/3 5/16/3 23/17/3 10/18/3
f 5/16/3 1/19/3 24/20/3 23/17/3
f 16/21/3 4/22/3 6/23/3 15/24/3
f 18/25/3 3/26/3 8/27/3 20/28/3
f 14/29/4 1/30/4 4/31/4 16/32/4
f 17/33/2 2/34/2 5/35/2 13/36/2
f 2/34/2 3/37/2 6/38/2 5/35/2
f 3/39/1 2/40/1 7/41/1 8/42/1
f 2/43/5 17/44/5 19/25/5 7/45/5
f 7/46/2 19/47/2 20/48/2 8/49/2
f 3/37/2 18/50/2 15/51/2 6/38/2
f 1/19/3 14/52/3 12/53/3 24/20/3
f 21/54/4 24/55/4 12/5/4 9/56/4
f 21/57/5 9/58/5 11/59/5 22/60/5
f 34/61/4 26/62/4 37/63/4 44/64/4
f 31/65/3 35/66/3 43/67/3 42/68/3
f 28/69/2 32/70/2 41/71/2 40/72/2
f 39/73/1 40/74/1 41/75/1 42/76/1 43/77/1 44/78/1 37/79/1 38/80/1
f 36/12/1 35/81/1 31/82/1 33/83/1 23/84/1 24/13/1
f 33/83/1 32/85/1 28/86/1 30/87/1 22/88/1 23/84/1
f 25/89/5 29/90/5 39/91/5 38/92/5
f 25/93/1 26/10/1 27/9/1
f 28/86/1 29/94/1 30/87/1
f 31/82/1 32/85/1 33/83/1
f 34/11/1 35/81/1 36/12/1
f 28/95/6 40/96/6 39/91/6 29/90/6
f 37/97/7 26/98/7 25/89/7 38/92/7
f 34/99/8 44/100/8 43/67/8 35/66/8
f 41/101/9 32/102/9 31/65/9 42/68/9
f 30/87/1 29/94/1 25/93/1 27/9/1 21/14/1 22/88/1
f 45/103/10 48/104/10 50/105/10 49/106/10
f 11/5/2 54/55/2 55/107/2 10/6/2
f 59/108/10 53/109/10 56/110/10 68/111/10 66/112/10 58/113/10
f 13/15/3 10/18/3 55/114/3 49/115/3
f 49/115/3 55/114/3 56/116/3 45/117/3
f 16/21/3 15/24/3 50/118/3 48/119/3
f 18/25/3 20/28/3 52/120/3 47/45/3
f 14/29/4 16/32/4 48/121/4 45/122/4
f 17/33/2 13/36/2 49/123/2 46/124/2
f 46/124/2 49/123/2 50/125/2 47/126/2
f 47/127/10 52/128/10 51/129/10 46/130/10
f 46/131/5 51/26/5 19/25/5 17/44/5
f 51/132/2 52/133/2 20/48/2 19/47/2
f 47/126/2 50/125/2 15/51/2 18/50/2
f 45/117/3 56/116/3 12/53/3 14/52/3
f 53/134/4 9/56/4 12/5/4 56/8/4
f 53/135/5 54/136/5 11/59/5 9/58/5
f 66/137/4 76/138/4 69/139/4 58/140/4
f 63/91/3 74/141/3 75/142/3 67/92/3
f 60/143/2 72/137/2 73/63/2 64/144/2
f 71/145/10 70/146/10 69/147/10 76/148/10 75/73/10 74/149/10 73/150/10 72/151/10
f 68/111/10 56/110/10 55/152/10 65/153/10 63/154/10 67/155/10
f 65/153/10 55/152/10 54/156/10 62/157/10 60/158/10 64/159/10
f 57/160/5 70/161/5 71/162/5 61/163/5
f 57/164/10 59/108/10 58/113/10
f 60/158/10 62/157/10 61/165/10
f 63/154/10 65/153/10 64/159/10
f 66/112/10 68/111/10 67/155/10
f 60/166/6 61/163/6 71/162/6 72/167/6
f 69/168/7 70/161/7 57/160/7 58/169/7
f 66/97/8 67/92/8 75/142/8 76/170/8
f 73/171/9 74/141/9 63/91/9 64/96/9
f 62/157/10 54/156/10 53/109/10 59/108/10 57/164/10 61/165/10
